<?xml version="1.0" encoding="UTF-8"?>
<svg width="180px" height="180px" viewBox="0 0 180 180" version="1.1" xmlns="http://www.w3.org/2000/svg" xmlns:xlink="http://www.w3.org/1999/xlink">
    <!-- Generator: Sketch 51.3 (57544) - http://www.bohemiancoding.com/sketch -->
    <title>email_signature</title>
    <desc>Created with Sketch.</desc>
    <defs></defs>
    <g id="email_signature" stroke="none" stroke-width="1" fill="none" fill-rule="evenodd">
        <g id="GitCoach-White-Background" transform="translate(0.000000, 20.869565)">
            <g id="Group">
                <path d="M117.703524,112.857176 L113.091958,117.468742 L108.480392,112.857176 L113.091958,108.24561 L117.703524,112.857176 Z M122.31509,117.468742 L133.963951,129.117602 L170.856522,92.2304348 L180.0794,92.2246094 L138.575179,133.72883 L133.97045,138.347233 L117.703524,122.080308 L122.31509,117.468742 Z M108.480392,103.634044 L103.868826,108.24561 L41.7391304,46.1159138 L87.8547901,7.17648163e-13 L87.8608696,0.00607948783 L87.8608696,0 L153.078261,0 L146.556522,6.52173913 L90.5561829,6.52173913 L50.9621353,46.1157867 L108.480392,103.634044 Z" id="Combined-Shape" fill="#F0326B"></path>
                <path d="M129.117665,92.2240814 L92.2304348,55.3304348 L92.2246094,46.1086957 L138.340269,92.2243553 L96.8360483,133.72883 L92.2313193,138.347233 L-1.21680443e-13,46.1159138 L46.1156596,7.17648163e-13 L46.1217391,0.00607948783 L46.1217391,0 L81.0913043,0 L74.5695652,6.52173913 L48.8170524,6.52173913 L9.22300485,46.1157867 L92.2244824,129.117264 L129.117665,92.2240814 Z" id="Combined-Shape" fill="#1F2533"></path>
            </g>
        </g>
    </g>
</svg>